<?xml version="1.0" encoding="UTF-8" standalone="no"?>
<svg width="16px" height="16px" viewBox="0 0 16 16" version="1.1" xmlns="http://www.w3.org/2000/svg" xmlns:xlink="http://www.w3.org/1999/xlink" xmlns:sketch="http://www.bohemiancoding.com/sketch/ns">
    <title>apple--red</title>
    <description>Created with Sketch (http://www.bohemiancoding.com/sketch)</description>
    <defs></defs>
    <g id="Page-1" stroke="none" stroke-width="1" fill="none" fill-rule="evenodd" sketch:type="MSPage">
        <g id="apple--red" sketch:type="MSArtboardGroup" fill="#FF4136">
            <path d="M11.1812335,15.9707692 C10.8516136,15.9707692 10.3837143,15.8676923 9.77431951,15.6630769 C9.19708281,15.4584615 8.69220168,15.3553846 8.25646032,15.3553846 C7.84805329,15.3553846 7.37211439,15.4615385 6.82864362,15.6738462 C6.28678075,15.8907692 5.84460779,16 5.50212473,16 C4.48432296,16 3.4761686,15.1692308 2.47766165,13.5092308 C1.49362582,11.8369231 1,10.2246154 1,8.67384615 C1,7.21230769 1.3794648,6.01384615 2.13678649,5.07692308 C2.88606868,4.15384615 3.83794648,3.69230769 4.99081199,3.69230769 C5.4731825,3.69230769 6.06489032,3.78923077 6.76915126,3.98153846 C7.46537269,4.17384615 7.92844837,4.26923077 8.15516251,4.26923077 C8.45744803,4.26923077 8.93660273,4.16 9.59262662,3.94307692 C10.2759848,3.72461538 10.8564373,3.61538462 11.3307683,3.61538462 C12.1282876,3.61538462 12.8421959,3.82461538 13.4724934,4.24 C13.8198002,4.47076923 14.1687148,4.79230769 14.5176295,5.20153846 C13.9870219,5.63230769 13.6059492,6.00923077 13.3711956,6.33692308 C12.9354542,6.94 12.7183875,7.60307692 12.7183875,8.32769231 C12.7183875,9.12153846 12.9499253,9.83692308 13.4113931,10.4707692 C13.8744688,11.1061538 14.4034685,11.5092308 15,11.6830769 C14.737912,12.4846154 14.3262892,13.2861538 13.7635236,14.0861538 C12.8984725,15.3430769 12.0382451,15.9707692 11.1812335,15.9707692 Z M9.99460204,3.03846154 C9.63282416,3.38461538 9.27104628,3.61538462 8.9092684,3.73076923 C8.66165154,3.80153846 8.31273688,3.85538462 7.86413231,3.89384615 C7.88503503,2.94 8.1455151,2.11538462 8.64878833,1.42307692 C9.14402205,0.736923077 9.98173883,0.263076923 11.1603308,0 C11.1667624,0.02 11.1748019,0.0553846154 11.1860572,0.106153846 C11.1957046,0.156923077 11.2037441,0.192307692 11.2101757,0.212307692 C11.2101757,0.236923077 11.2117836,0.269230769 11.2166073,0.307692308 C11.2198231,0.346153846 11.221431,0.378461538 11.221431,0.404615385 C11.221431,0.795384615 11.123349,1.23076923 10.9287929,1.71230769 C10.7278052,2.19230769 10.4174802,2.63538462 9.99460204,3.03846154 Z" id="Imported-Layers" sketch:type="MSShapeGroup"></path>
        </g>
    </g>
</svg>