<?xml version="1.0" encoding="UTF-8" standalone="no"?>
<svg width="16px" height="16px" viewBox="0 0 16 16" version="1.1" xmlns="http://www.w3.org/2000/svg" xmlns:xlink="http://www.w3.org/1999/xlink" xmlns:sketch="http://www.bohemiancoding.com/sketch/ns">
    <title>call--gray-lighter</title>
    <description>Created with Sketch (http://www.bohemiancoding.com/sketch)</description>
    <defs></defs>
    <g id="Page-1" stroke="none" stroke-width="1" fill="none" fill-rule="evenodd" sketch:type="MSPage">
        <g id="call--gray-lighter" sketch:type="MSArtboardGroup" fill="#EEEEEE">
            <path d="M13.9935416,10.3128751 C13.5345416,9.8538751 12.7905416,9.8538751 12.3305416,10.3128751 L11.4995416,11.1438751 C11.0405416,11.6028751 10.2965416,11.6028751 9.83754157,11.1438751 L4.85454157,6.1598751 C4.39554157,5.7008751 4.39554157,4.9568751 4.85454157,4.4978751 L5.68554157,3.6678751 C6.14454157,3.2088751 6.14454157,2.4638751 5.68554157,2.0058751 L4.02354157,0.343875102 C3.56454157,-0.114124898 2.82054157,-0.115124898 2.36154157,0.343875102 L0.284541568,2.4218751 C0.055541568,2.6508751 -0.063458432,3.0918751 0.034541568,3.4008751 C0.896541568,6.1248751 2.73354157,9.0228751 4.85454157,11.1438751 C6.97454157,13.2638751 9.87354157,15.1018751 12.5975416,15.9618751 C12.9075416,16.0608751 13.3485416,15.9408751 13.5775416,15.7118751 L15.6545416,13.6358751 C16.1135416,13.1768751 16.1135416,12.4328751 15.6545416,11.9738751 L13.9935416,10.3128751 L13.9935416,10.3128751 Z" id="Call_1_x2C__Phone_1" sketch:type="MSShapeGroup"></path>
        </g>
    </g>
</svg>