<?xml version="1.0" encoding="UTF-8" standalone="no"?>
<svg width="14px" height="16px" viewBox="0 0 14 16" version="1.1" xmlns="http://www.w3.org/2000/svg" xmlns:xlink="http://www.w3.org/1999/xlink" xmlns:sketch="http://www.bohemiancoding.com/sketch/ns">
    <title>location</title>
    <description>Created with Sketch (http://www.bohemiancoding.com/sketch)</description>
    <defs></defs>
    <g id="Page-1" stroke="none" stroke-width="1" fill="none" fill-rule="evenodd" sketch:type="MSPage">
        <g id="location" sketch:type="MSArtboardGroup" fill="#000000">
            <path d="M6.072,0 C2.719,0 0,2.719 0,6.072 C0,10.362 4.363,14.651 5.692,15.859 C5.899,16.047 6.245,16.047 6.452,15.859 C7.781,14.651 12.144,10.362 12.144,6.072 C12.145,2.719 9.426,0 6.072,0 L6.072,0 Z M6.072,9 C4.416,9 3.072,7.656 3.072,6 C3.072,4.344 4.416,3 6.072,3 C7.728,3 9.072,4.344 9.072,6 C9.072,7.656 7.729,9 6.072,9 L6.072,9 Z" id="Location_Pin_1" sketch:type="MSShapeGroup"></path>
        </g>
    </g>
</svg>