<?xml version="1.0" encoding="UTF-8" standalone="no"?>
<svg width="16px" height="16px" viewBox="0 0 16 16" version="1.1" xmlns="http://www.w3.org/2000/svg" xmlns:xlink="http://www.w3.org/1999/xlink" xmlns:sketch="http://www.bohemiancoding.com/sketch/ns">
    <title>location--green</title>
    <description>Created with Sketch (http://www.bohemiancoding.com/sketch)</description>
    <defs></defs>
    <g id="Page-1" stroke="none" stroke-width="1" fill="none" fill-rule="evenodd" sketch:type="MSPage">
        <g id="location--green" sketch:type="MSArtboardGroup" fill="#5D9632">
            <path d="M8.072,0 C4.719,0 2,2.719 2,6.072 C2,10.362 6.363,14.651 7.692,15.859 C7.899,16.047 8.245,16.047 8.452,15.859 C9.781,14.651 14.144,10.362 14.144,6.072 C14.145,2.719 11.426,0 8.072,0 L8.072,0 Z M8.072,9 C6.416,9 5.072,7.656 5.072,6 C5.072,4.344 6.416,3 8.072,3 C9.728,3 11.072,4.344 11.072,6 C11.072,7.656 9.729,9 8.072,9 L8.072,9 Z" id="Location_Pin_1" sketch:type="MSShapeGroup"></path>
        </g>
    </g>
</svg>