<?xml version="1.0" encoding="UTF-8" standalone="no"?>
<svg width="16px" height="16px" viewBox="0 0 16 16" version="1.1" xmlns="http://www.w3.org/2000/svg" xmlns:xlink="http://www.w3.org/1999/xlink" xmlns:sketch="http://www.bohemiancoding.com/sketch/ns">
    <title>mail--blue</title>
    <description>Created with Sketch (http://www.bohemiancoding.com/sketch)</description>
    <defs></defs>
    <g id="Page-1" stroke="none" stroke-width="1" fill="none" fill-rule="evenodd" sketch:type="MSPage">
        <g id="mail--blue" sketch:type="MSArtboardGroup" fill="#0054A4">
            <path d="M10.899,9.281 L8.391,11.287 C8.175,11.46 7.826,11.46 7.61,11.287 L5.101,9.281 C4.885,9.108 4.535,9.108 4.319,9.28 L0,12.729 L0,13 C0,13.439 0.45,14 1,14 L15,14 C15.55,14 16,13.439 16,13 L16,12.729 L11.681,9.28 C11.465,9.108 11.115,9.108 10.899,9.281 L10.899,9.281 Z M13.101,8.145 L15.61,10.152 C15.825,10.324 16,10.24 16,9.964 L16,5.7 C16,5.424 15.825,5.34 15.609,5.512 L13.101,7.52 C12.885,7.692 12.885,7.972 13.101,8.145 L13.101,8.145 Z M1,2 C0.45,2 0,2.561 0,3 L7.568,9.024 C7.785,9.196 8.135,9.197 8.352,9.026 L16,3 C16,2.561 15.55,2 15,2 L1,2 L1,2 Z M0,5.7 L0,9.964 C0,10.24 0.175,10.324 0.391,10.152 L2.9,8.145 C3.116,7.972 3.116,7.693 2.9,7.52 L0.391,5.513 C0.175,5.34 0,5.424 0,5.7 L0,5.7 Z" id="Mail_4_x2C__Envelope_4" sketch:type="MSShapeGroup"></path>
        </g>
    </g>
</svg>