<?xml version="1.0" encoding="UTF-8" standalone="no"?>
<svg width="16px" height="16px" viewBox="0 0 16 16" version="1.1" xmlns="http://www.w3.org/2000/svg" xmlns:xlink="http://www.w3.org/1999/xlink" xmlns:sketch="http://www.bohemiancoding.com/sketch/ns">
    <title>right-arrow</title>
    <description>Created with Sketch (http://www.bohemiancoding.com/sketch)</description>
    <defs></defs>
    <g id="Page-1" stroke="none" stroke-width="1" fill="none" fill-rule="evenodd" sketch:type="MSPage">
        <g id="right-arrow" sketch:type="MSArtboardGroup" fill="#000000">
            <path d="M8,0 C3.582,0 0,3.582 0,8 C0,12.418 3.582,16 8,16 C12.418,16 16,12.418 16,8 C16,3.582 12.418,0 8,0 L8,0 Z M10.859,8.346 L7.509,11.853 C7.32,12.05 7.013,12.05 6.825,11.853 L6.141,11.136 C5.952,10.939 5.952,10.618 6.141,10.42 L8.463,7.986 L6.17,5.581 C5.981,5.384 5.981,5.063 6.17,4.866 L6.854,4.149 C7.042,3.95 7.348,3.95 7.538,4.149 L10.86,7.628 C11.047,7.826 11.047,8.146 10.859,8.346 L10.859,8.346 Z" id="Right_Circle_2" sketch:type="MSShapeGroup"></path>
        </g>
    </g>
</svg>