<?xml version="1.0" encoding="UTF-8" standalone="no"?>
<svg width="16px" height="16px" viewBox="0 0 16 16" version="1.1" xmlns="http://www.w3.org/2000/svg" xmlns:xlink="http://www.w3.org/1999/xlink" xmlns:sketch="http://www.bohemiancoding.com/sketch/ns">
    <title>rss--green</title>
    <description>Created with Sketch (http://www.bohemiancoding.com/sketch)</description>
    <defs></defs>
    <g id="Page-1" stroke="none" stroke-width="1" fill="none" fill-rule="evenodd" sketch:type="MSPage">
        <g id="rss--green" sketch:type="MSArtboardGroup" fill="#5D9632">
            <path d="M0.502,8.503 C0.227,8.485 0,8.263 0,7.986 L0,5.933 C0,5.656 0.227,5.431 0.502,5.445 C3.213,5.572 5.658,6.726 7.458,8.529 C9.262,10.334 10.416,12.777 10.545,15.488 C10.558,15.763 10.334,15.988 10.057,15.988 L7.99,15.988 C7.714,15.988 7.491,15.763 7.472,15.488 C7.351,13.67 6.588,11.975 5.293,10.685 C4.002,9.388 2.309,8.625 0.502,8.503 L0.502,8.503 Z M4,13.782 C3.999,14.331 3.777,14.988 3.414,14.988 L3.412,14.988 C3.05,15.988 2.553,15.772 1.999,15.772 C1.446,15.772 0.952,15.647 0.587,15.285 C0.226,14.924 0,14.479 0,13.93 C0,13.38 0.226,12.91 0.587,12.55 C0.952,12.186 1.446,11.978 1.999,11.978 C2.553,11.978 3.047,12.105 3.412,12.47 C3.777,12.83 3.999,13.232 4,13.782 L4,13.782 Z M0,2.546 L0,0.493 C0,0.216 0.229,-0.008 0.505,1.33226763e-14 C4.714,0.132 8.517,1.896 11.305,4.687 C14.092,7.474 15.858,11.279 15.99,15.488 C15.999,15.763 15.776,15.988 15.499,15.988 L13.435,15.988 C13.159,15.988 12.936,15.764 12.925,15.488 C12.668,8.75 7.235,3.318 0.505,3.056 C0.229,3.044 0,2.822 0,2.546 L0,2.546 Z" id="Shape" sketch:type="MSShapeGroup"></path>
        </g>
    </g>
</svg>