<?xml version="1.0" encoding="UTF-8" standalone="no"?>
<svg width="16px" height="16px" viewBox="0 0 16 16" version="1.1" xmlns="http://www.w3.org/2000/svg" xmlns:xlink="http://www.w3.org/1999/xlink" xmlns:sketch="http://www.bohemiancoding.com/sketch/ns">
    <title>rss--red</title>
    <description>Created with Sketch (http://www.bohemiancoding.com/sketch)</description>
    <defs></defs>
    <g id="Page-1" stroke="none" stroke-width="1" fill="none" fill-rule="evenodd" sketch:type="MSPage">
        <g id="rss--red" sketch:type="MSArtboardGroup" fill="#FF4136">
            <path d="M0.502,8.50320782 C0.227,8.48520782 0,8.26320782 0,7.98620782 L0,5.93320782 C0,5.65620782 0.227,5.43120782 0.502,5.44520782 C3.213,5.57220782 5.658,6.72620782 7.458,8.52920782 C9.262,10.3342078 10.416,12.7772078 10.545,15.4882078 C10.558,15.7632078 10.334,15.9882078 10.057,15.9882078 L7.99,15.9882078 C7.714,15.9882078 7.491,15.7632078 7.472,15.4882078 C7.351,13.6702078 6.588,11.9752078 5.293,10.6852078 C4.002,9.38820782 2.309,8.62520782 0.502,8.50320782 L0.502,8.50320782 Z M4,13.7822078 C3.999,14.3312078 3.777,14.9882078 3.414,14.9882078 L3.412,14.9882078 C3.05,15.9882078 2.553,15.7722078 1.999,15.7722078 C1.446,15.7722078 0.952,15.6472078 0.587,15.2852078 C0.226,14.9242078 0,14.4792078 0,13.9302078 C0,13.3802078 0.226,12.9102078 0.587,12.5502078 C0.952,12.1862078 1.446,11.9782078 1.999,11.9782078 C2.553,11.9782078 3.047,12.1052078 3.412,12.4702078 C3.777,12.8302078 3.999,13.2322078 4,13.7822078 L4,13.7822078 Z M0,2.54620782 L0,0.493207823 C0,0.216207823 0.229,-0.00779217675 0.505,0.00020782325 C4.714,0.132207823 8.517,1.89620782 11.305,4.68720782 C14.092,7.47420782 15.858,11.2792078 15.99,15.4882078 C15.999,15.7632078 15.776,15.9882078 15.499,15.9882078 L13.435,15.9882078 C13.159,15.9882078 12.936,15.7642078 12.925,15.4882078 C12.668,8.75020782 7.235,3.31820782 0.505,3.05620782 C0.229,3.04420782 0,2.82220782 0,2.54620782 L0,2.54620782 Z" id="Shape" sketch:type="MSShapeGroup"></path>
        </g>
    </g>
</svg>