<?xml version="1.0" encoding="UTF-8" standalone="no"?>
<svg width="16px" height="16px" viewBox="0 0 16 16" version="1.1" xmlns="http://www.w3.org/2000/svg" xmlns:xlink="http://www.w3.org/1999/xlink" xmlns:sketch="http://www.bohemiancoding.com/sketch/ns">
    <title>twitter--white</title>
    <description>Created with Sketch (http://www.bohemiancoding.com/sketch)</description>
    <defs></defs>
    <g id="Page-1" stroke="none" stroke-width="1" fill="none" fill-rule="evenodd" sketch:type="MSPage">
        <g id="twitter--white" sketch:type="MSArtboardGroup" fill="#FFFFFF">
            <path d="M15.995,2.539 C15.406,2.801 14.774,2.977 14.11,3.057 C14.788,2.651 15.307,2.008 15.553,1.241 C14.918,1.618 14.215,1.891 13.468,2.038 C12.87,1.398 12.016,1 11.073,1 C9.259,1 7.79,2.471 7.79,4.283 C7.79,4.541 7.819,4.791 7.875,5.031 C5.147,4.894 2.728,3.588 1.108,1.601 C0.827,2.086 0.665,2.65 0.665,3.252 C0.665,4.391 1.423,5.395 2.304,5.984 C1.765,5.967 0.995,5.818 0.995,5.572 L0.995,5.615 C0.995,7.205 1.948,8.531 3.449,8.834 C3.173,8.908 2.795,8.949 2.495,8.949 C2.283,8.949 2.034,8.928 1.832,8.888 C2.25,10.193 3.44,11.142 4.876,11.169 C3.753,12.048 2.326,12.573 0.789,12.573 C0.523,12.573 0.257,12.557 8.8817842e-16,12.528 C1.453,13.458 3.175,14.003 5.029,14.003 C11.068,14.003 14.367,9.001 14.367,4.663 C14.367,4.52 14.363,4.378 14.356,4.237 C14.999,3.775 15.555,3.197 15.995,2.539 L15.995,2.539 Z" id="Shape" sketch:type="MSShapeGroup"></path>
        </g>
    </g>
</svg>