<?xml version="1.0" encoding="UTF-8" standalone="no"?>
<svg width="16px" height="16px" viewBox="0 0 16 16" version="1.1" xmlns="http://www.w3.org/2000/svg" xmlns:xlink="http://www.w3.org/1999/xlink" xmlns:sketch="http://www.bohemiancoding.com/sketch/ns">
    <title>zoom</title>
    <description>Created with Sketch (http://www.bohemiancoding.com/sketch)</description>
    <defs></defs>
    <g id="Page-1" stroke="none" stroke-width="1" fill="none" fill-rule="evenodd" sketch:type="MSPage">
        <g id="zoom" sketch:type="MSArtboardGroup" fill="#000000">
            <path d="M15.19,11.26 L12.62,8.69 C12.87,8.01 13,7.27 13,6.5 C13,2.91 10.09,0 6.5,0 C2.91,0 0,2.91 0,6.5 C0,10.09 2.91,13 6.5,13 C7.27,13 8.01,12.87 8.69,12.62 L11.259,15.19 C11.78,15.71 12.48,16 13.22,16 C13.96,16 14.66,15.71 15.191,15.19 C16.27,14.1 16.27,12.34 15.19,11.26 L15.19,11.26 L15.19,11.26 Z M7.04,10.97 C6.86,10.99 6.68,11 6.5,11 C4.02,11 2,8.98 2,6.5 C2,4.02 4.02,2 6.5,2 C8.98,2 11,4.02 11,6.5 C11,6.68 10.99,6.86 10.97,7.04 C10.88,7.79 10.6,8.49 10.18,9.08 C9.88,9.51 9.51,9.88 9.08,10.18 C8.49,10.6 7.79,10.88 7.04,10.97 L7.04,10.97 L7.04,10.97 Z M13.77,13.77 C13.481,14.071 12.96,14.071 12.67,13.77 L10.51,11.611 C10.92,11.291 11.29,10.921 11.611,10.51 L13.77,12.67 C14.08,12.98 14.08,13.47 13.77,13.77 L13.77,13.77 L13.77,13.77 Z" id="Zoom_1_x2C__Magnifying_Glass_1" sketch:type="MSShapeGroup"></path>
        </g>
    </g>
</svg>